PathFileType	4	(X/Y/Z)	/Users/itak/Documents/Research/Walk-IL/dataset/trc/00340_00011.trc
DataRate	CameraRate	NumFrames	NumMarkers	Units	OrigDataRate	OrigDataStartFrame	OrigNumFrames
100.000000	100.000000	4	53	mm	100.000000	306	817
Frame#	Time	RPSI			LPSI			L3			STRN			T10			C7			CLAV			RBAK			LBAK			LSHO			LUPA			LAEL			LAOL			LWTS			LWPS			LFRA			LIFD			LHPS			LHTS			RSHO			RUPA			RAEL			RAOL			RWTS			RWPS			RFRA			RIFD			RHTS			RHPS			RBHD			LFHD			RFHD			LBHD			LHIP			RHIP			RASI			LASI			LKNE			LTHI			LANK			LTIP			LTOE			LMT1			LMT5			LHEE			RKNE			RTHI			RANK			RTIP			RTOE			RMT1			RMT5			RHEE			
		X1	Y1	Z1	X2	Y2	Z2	X3	Y3	Z3	X4	Y4	Z4	X5	Y5	Z5	X6	Y6	Z6	X7	Y7	Z7	X8	Y8	Z8	X9	Y9	Z9	X10	Y10	Z10	X11	Y11	Z11	X12	Y12	Z12	X13	Y13	Z13	X14	Y14	Z14	X15	Y15	Z15	X16	Y16	Z16	X17	Y17	Z17	X18	Y18	Z18	X19	Y19	Z19	X20	Y20	Z20	X21	Y21	Z21	X22	Y22	Z22	X23	Y23	Z23	X24	Y24	Z24	X25	Y25	Z25	X26	Y26	Z26	X27	Y27	Z27	X28	Y28	Z28	X29	Y29	Z29	X30	Y30	Z30	X31	Y31	Z31	X32	Y32	Z32	X33	Y33	Z33	X34	Y34	Z34	X35	Y35	Z35	X36	Y36	Z36	X37	Y37	Z37	X38	Y38	Z38	X39	Y39	Z39	X40	Y40	Z40	X41	Y41	Z41	X42	Y42	Z42	X43	Y43	Z43	X44	Y44	Z44	X45	Y45	Z45	X46	Y46	Z46	X47	Y47	Z47	X48	Y48	Z48	X49	Y49	Z49	X50	Y50	Z50	X51	Y51	Z51	X52	Y52	Z52	X53	Y53	Z53	

307	3.06	928.9002075195312	964.5718383789062	477.3198547363281	799.7855224609375	954.2184448242188	493.6640625	868.5536499023438	1021.264038085938	485.1572875976562	816.3848266601562	1198.9345703125	251.5922393798828	862.4165649414062	1140.690307617188	490.7311706542969	830.5603637695312	1386.4423828125	443.4922485351562	814.2506713867188	1325.223999023438	291.6991271972656	910.8632202148438	1252.251220703125	487.1956176757812	734.824462890625	1347.59716796875	471.2625122070312	665.3369750976562	1360.665893554688	396.0345153808594	604.7033081054688	1248.732177734375	443.6806030273438	585.1334228515625	1047.318969726562	471.9145202636719	655.7007446289062	1044.066284179688	518.2371826171875	597.7738647460938	788.4407348632812	422.4570922851562	554.3377075195312	791.3687133789062	476.528076171875	571.5477905273438	943.3753662109375	481.9779357910156	592.1592407226562	630.4478759765625	454.64013671875	556.9337768554688	724.4173583984375	494.3961486816406	575.003662109375	711.386474609375	433.0431518554688	981.114990234375	1378.844116210938	366.2438049316406	1051.31787109375	1323.811157226562	370.0220642089844	1156.035400390625	1078.572387695312	339.093017578125	1083.117431640625	1047.33544921875	391.3243408203125	1141.762817382812	859.1090698242188	209.0500335693359	1215.183349609375	856.0086059570312	230.5894775390625	1176.761108398438	1016.863464355469	305.7389526367188	1178.984741210938	698.1142578125	165.8724060058594	1172.182983398438	770.6084594726562	160.0392150878906	1229.12353515625	777.9423828125	199.9610748291016	886.5515747070312	1600.51123046875	350.5311889648438	729.6998901367188	1572.70703125	216.1168518066406	828.8150024414062	1583.789306640625	199.1803436279297	752.3735961914062	1584.97509765625	400.8441772460938	688.3631591796875	891.4761352539062	418.8567810058594	1029.602661132812	916.484130859375	383.8393249511719	974.8603515625	943.5947265625	284.4765014648438	735.252197265625	923.3839721679688	295.5298461914062	723.9097900390625	449.6145935058594	256.5789794921875	708.4910278320312	578.7368774414062	286.8929443359375	751.4511108398438	193.3883819580078	605.7760009765625	727.9788208007812	306.3705444335938	429.679443359375	847.1065063476562	44.8914680480957	488.8555908203125	875.8778076171875	98.35243225097656	540.5804443359375	762.0014038085938	89.80715179443359	534.6739501953125	813.196044921875	228.9021148681641	632.4673461914062	1027.427978515625	454.0282897949219	299.5702819824219	1037.303955078125	715.8182373046875	290.3628845214844	1038.105224609375	39.0262451171875	402.0113525390625	1027.293334960938	332.4986572265625	300.5246276855469	977.3042602539062	35.15130996704102	211.5557861328125	937.149658203125	30.20926094055176	266.2460021972656	1051.065185546875	28.22674942016602	301.9731140136719	992.4972534179688	42.87699127197266	454.8898010253906	
308	3.07	930.9523315429688	965.4397583007812	469.0976257324219	802.121826171875	955.2693481445312	486.8451843261719	871.221923828125	1022.535949707031	477.7612915039062	816.2423706054688	1199.78955078125	243.8589324951172	865.8641357421875	1141.939331054688	482.9130554199219	833.4924926757812	1387.47900390625	435.1371154785156	814.66455078125	1326.09521484375	283.8711242675781	914.4581298828125	1253.400024414062	477.9228210449219	738.32763671875	1348.921997070312	464.6417846679688	667.4893798828125	1361.785522460938	390.5647583007812	607.9208984375	1250.428344726562	440.4284973144531	589.58740234375	1049.220825195312	471.1468200683594	661.2073364257812	1046.558349609375	515.700439453125	601.7213134765625	789.784423828125	423.8335571289062	559.4598388671875	792.911865234375	478.7569580078125	576.4589233398438	945.393310546875	482.5791320800781	598.4937133789062	632.0653686523438	457.6803283691406	562.568115234375	726.1188354492188	497.041015625	579.9505004882812	712.657470703125	435.68701171875	982.7015380859375	1379.847290039062	355.636962890625	1052.954223632812	1324.782104492188	357.9905090332031	1157.31884765625	1080.181762695312	321.5396118164062	1085.463989257812	1047.877197265625	374.462890625	1141.387329101562	862.9996337890625	187.8726501464844	1215.081298828125	859.6572265625	208.4123077392578	1177.646728515625	1019.147216796875	286.7594299316406	1178.252807617188	702.92822265625	141.1633453369141	1171.23486328125	775.6015014648438	136.72314453125	1228.75244140625	782.248046875	175.9130096435547	887.9188232421875	1601.359252929688	340.3257446289062	728.74462890625	1573.033081054688	208.7988128662109	827.51318359375	1583.997192382812	190.1788177490234	754.6480102539062	1585.986938476562	393.0665283203125	689.763916015625	893.24658203125	412.98046875	1030.865966796875	916.8699340820312	374.9415588378906	975.6448974609375	944.0054321289062	275.9298706054688	736.2730712890625	924.9141845703125	289.4949951171875	722.7965698242188	453.5298767089844	241.7218627929688	707.8782348632812	582.1660766601562	275.3431091308594	762.38916015625	187.0645904541016	583.0602416992188	732.822265625	305.3439636230469	410.8332214355469	852.5576782226562	44.65752410888672	455.1707458496094	883.6936645507812	94.92162322998047	508.3515930175781	769.6265869140625	87.57389068603516	506.3546142578125	825.2698364257812	221.2691192626953	609.0076904296875	1027.576904296875	453.7202453613281	297.1422729492188	1037.1611328125	715.37548828125	283.1184997558594	1038.06591796875	39.16020965576172	401.9401550292969	1027.50341796875	332.2685241699219	298.9644775390625	977.2134399414062	34.92904281616211	211.4765625	937.0808715820312	30.11502647399902	266.2382507324219	1051.060180664062	28.28961181640625	301.901123046875	992.6153564453125	43.31833648681641	454.8623962402344	
309	3.08	932.9984741210938	966.1854248046875	460.8327941894531	804.4613647460938	956.127197265625	480.0885925292969	873.8182373046875	1023.630126953125	470.2578735351562	816.0822143554688	1200.480834960938	236.151123046875	869.0296630859375	1143.009399414062	475.0408630371094	836.2052001953125	1388.385864257812	426.7994689941406	815.02734375	1326.824951171875	276.0473327636719	917.7958374023438	1254.395751953125	468.7014770507812	741.6261596679688	1350.093872070312	457.9280395507812	669.5087890625	1362.74072265625	384.9469604492188	611.056396484375	1251.93701171875	436.9510803222656	594.0492553710938	1050.973510742188	470.0433044433594	666.6826171875	1048.852905273438	512.8621826171875	605.919677734375	791.0069580078125	424.976806640625	564.7274780273438	794.3574829101562	480.6704711914062	581.4371337890625	947.2532958984375	482.8552856445312	604.947021484375	633.5830688476562	460.4188537597656	568.2635498046875	727.6768798828125	499.25	585.0973510742188	713.8187255859375	438.0513305664062	984.1414794921875	1380.686889648438	345.1738586425781	1054.397705078125	1325.578002929688	346.1595764160156	1158.179809570312	1081.608520507812	304.322265625	1087.241821289062	1048.232177734375	357.6979675292969	1140.489624023438	866.8485107421875	166.9831237792969	1214.447021484375	863.2290649414062	186.5646209716797	1178.0703125	1021.263610839844	268.1395263671875	1176.845458984375	707.7446899414062	116.7262115478516	1169.735717773438	780.58154296875	113.7239074707031	1227.758544921875	786.4674072265625	152.2612152099609	889.1239013671875	1602.087158203125	330.2289428710938	727.706787109375	1573.274169921875	201.5683898925781	826.1176147460938	1584.129638671875	181.2903442382812	756.7816772460938	1586.864379882812	385.3216857910156	691.162353515625	894.7943725585938	407.2351379394531	1032.0263671875	917.1646118164062	365.8980102539062	976.2090454101562	944.2390747070312	267.3347778320312	737.0955200195312	926.2194213867188	283.5009460449219	721.4110717773438	457.35888671875	227.4339294433594	706.9287109375	585.4927978515625	264.2688293457031	772.7522583007812	179.8186645507812	559.4906616210938	737.2977905273438	303.7603454589844	391.8628234863281	856.7491455078125	44.35163497924805	420.6009826660156	890.387451171875	91.07402801513672	475.3120727539062	776.2666015625	84.89764404296875	477.2791137695312	836.766845703125	212.5844268798828	584.6741333007812	1027.712158203125	453.4192199707031	294.9011535644531	1037.053833007812	714.8327026367188	276.0690307617188	1038.03173828125	39.28774642944336	401.8885498046875	1027.760009765625	332.0300598144531	297.5212097167969	977.1294555664062	34.7151985168457	211.4003753662109	937.0201416015625	30.02483367919922	266.2259521484375	1051.053955078125	28.33231544494629	301.8433227539062	992.7332153320312	43.75371932983398	454.832763671875	
310	3.09	935.06298828125	966.777587890625	452.4982604980469	806.8211059570312	956.8009033203125	473.3806457519531	876.365234375	1024.5498046875	462.6580505371094	815.8746337890625	1200.993530273438	228.4743347167969	871.94287109375	1143.893310546875	467.0825805664062	838.702392578125	1389.153930664062	418.4698486328125	815.3221435546875	1327.400268554688	268.2245483398438	920.8912963867188	1255.233642578125	459.51513671875	744.7182006835938	1351.10205078125	451.1297607421875	671.3949584960938	1363.522827148438	379.2043151855469	614.0955810546875	1253.2373046875	433.244140625	598.5078735351562	1052.560668945312	468.5909423828125	672.1082153320312	1050.918579101562	509.6993408203125	610.3455810546875	792.0780029296875	425.8651123046875	570.1250610351562	795.6917114257812	482.2552795410156	586.4746704101562	948.9271240234375	482.7825317382812	611.443359375	634.9745483398438	462.8566589355469	574.1121826171875	729.0852661132812	501.0920715332031	590.4034423828125	714.847900390625	440.1253662109375	985.4349365234375	1381.356201171875	334.8218994140625	1055.646484375	1326.18505859375	334.5076293945312	1158.646484375	1082.834106445312	287.4476623535156	1088.472900390625	1048.378173828125	341.0379638671875	1139.080322265625	870.6367797851562	146.4203643798828	1213.299682617188	866.6931762695312	165.0559692382812	1178.058837890625	1023.188598632812	249.8900451660156	1174.773315429688	712.5597534179688	92.59127044677734	1167.680541992188	785.4954223632812	91.09235382080078	1226.158935546875	790.5673217773438	129.0345001220703	890.17333984375	1602.68359375	320.2462768554688	726.5986328125	1573.42626953125	194.4153137207031	824.648193359375	1584.184448242188	172.5046234130859	758.7727661132812	1587.602783203125	377.6051025390625	692.5764770507812	896.1241455078125	401.6077270507812	1033.109619140625	917.3468017578125	356.7283325195312	976.5579833984375	944.26220703125	258.6832885742188	737.7022705078125	927.2943115234375	277.5285034179688	719.8348999023438	461.0584716796875	213.73486328125	705.6869506835938	588.68115234375	253.6600952148438	782.3798828125	171.7225799560547	535.0103759765625	741.34423828125	301.6393737792969	372.7544250488281	859.63134765625	44.05821990966797	385.32080078125	895.8892822265625	86.90189361572266	441.5897521972656	781.83642578125	81.84162902832031	447.5111694335938	847.4901123046875	202.9319152832031	559.415283203125	1027.836547851562	453.1139831542969	292.751708984375	1036.978393554688	714.2037963867188	269.2210388183594	1037.998657226562	39.43159866333008	401.8514709472656	1028.01171875	331.7664794921875	296.1402893066406	977.0487670898438	34.50582504272461	211.3243255615234	936.9672241210938	29.94144821166992	266.2005004882812	1051.042236328125	28.36451148986816	301.7945556640625	992.8342895507812	44.17925262451172	454.7986450195312	
